<?xml version="1.0" encoding="UTF-8" ?>
<!DOCTYPE svg PUBLIC "-//W3C//DTD SVG 1.1//EN" "http://www.w3.org/Graphics/SVG/1.1/DTD/svg11.dtd">
<svg width="201pt" height="267pt" viewBox="0 0 201 267" version="1.1" xmlns="http://www.w3.org/2000/svg">
<path fill="#ffffff" d=" M 0.00 0.00 L 98.64 0.00 C 91.20 0.51 84.45 4.86 80.59 11.18 C 71.65 12.42 64.21 19.18 61.66 27.77 C 46.41 27.80 31.16 27.63 15.91 27.85 C 7.40 28.04 0.06 35.61 0.00 44.11 L 0.00 0.00 Z" />
<path fill="#000000" d=" M 98.64 0.00 L 101.11 0.00 C 108.64 0.43 115.51 4.82 119.42 11.20 C 128.30 12.43 135.84 19.11 138.23 27.74 C 153.20 27.81 168.17 27.68 183.14 27.79 C 189.33 27.74 195.38 31.33 198.14 36.89 C 200.43 41.23 199.98 46.26 200.01 50.99 C 199.98 117.04 200.01 183.09 199.99 249.14 C 200.18 255.04 197.25 261.03 192.12 264.09 C 186.33 267.91 178.96 266.30 172.45 267.00 L 23.47 267.00 C 17.79 266.67 11.39 267.12 6.68 263.29 C 2.58 260.30 0.22 255.34 0.00 250.31 L 0.00 44.11 C 0.06 35.61 7.40 28.04 15.91 27.85 C 31.16 27.63 46.41 27.80 61.66 27.77 C 64.21 19.18 71.65 12.42 80.59 11.18 C 84.45 4.86 91.20 0.51 98.64 0.00 Z" />
<path fill="#ffffff" d=" M 101.11 0.00 L 201.00 0.00 L 201.00 267.00 L 172.45 267.00 C 178.96 266.30 186.33 267.91 192.12 264.09 C 197.25 261.03 200.18 255.04 199.99 249.14 C 200.01 183.09 199.98 117.04 200.01 50.99 C 199.98 46.26 200.43 41.23 198.14 36.89 C 195.38 31.33 189.33 27.74 183.14 27.79 C 168.17 27.68 153.20 27.81 138.23 27.74 C 135.84 19.11 128.30 12.43 119.42 11.20 C 115.51 4.82 108.64 0.43 101.11 0.00 Z" />
<path fill="#ffffff" d=" M 96.47 11.70 C 101.50 9.95 107.57 12.36 109.83 17.22 C 110.95 19.65 112.69 22.43 115.77 22.16 C 121.17 21.95 126.54 25.63 127.51 31.08 C 129.10 37.46 123.77 44.21 117.25 44.39 C 106.23 44.65 95.19 44.45 84.16 44.49 C 80.12 44.55 75.98 42.68 73.88 39.13 C 70.55 34.09 72.51 26.60 77.79 23.73 C 80.43 22.03 83.70 22.54 86.59 21.73 C 88.43 20.88 89.23 18.88 90.17 17.22 C 91.43 14.65 93.71 12.55 96.47 11.70 Z" />
<path fill="#ffffff" d=" M 11.01 45.89 C 10.80 43.07 12.20 39.91 15.13 39.14 C 19.32 38.79 23.54 39.09 27.75 39.00 C 27.75 101.69 27.74 164.38 27.76 227.07 C 27.65 230.79 29.27 234.62 32.40 236.75 C 35.11 238.85 38.67 239.01 41.95 239.01 C 81.03 238.98 120.12 239.02 159.20 238.99 C 163.37 239.17 167.85 237.72 170.20 234.07 C 172.63 230.90 172.24 226.72 172.26 222.97 C 172.23 161.65 172.26 100.32 172.25 39.00 C 176.46 39.09 180.70 38.79 184.90 39.15 C 187.79 39.93 189.20 43.06 188.99 45.87 C 189.02 111.59 188.99 177.32 189.01 243.05 C 188.94 245.99 189.29 249.00 188.51 251.88 C 187.81 254.17 185.43 255.73 183.05 255.50 C 127.68 255.50 72.31 255.50 16.94 255.50 C 13.00 255.93 10.51 251.79 11.00 248.25 C 11.00 180.80 10.99 113.34 11.01 45.89 Z" />
<path fill="#ffffff" d=" M 39.00 39.00 C 46.61 39.00 54.21 39.00 61.82 39.00 C 64.30 48.35 73.21 55.53 82.96 55.49 C 94.64 55.48 106.32 55.57 118.00 55.45 C 127.42 55.10 135.74 48.00 138.18 39.00 C 145.79 39.00 153.39 39.00 161.00 39.00 C 161.00 101.92 161.00 164.84 161.00 227.75 C 120.33 227.75 79.67 227.75 39.00 227.75 C 39.00 164.84 39.00 101.92 39.00 39.00 Z" />
<path fill="#000000" d=" M 76.24 78.01 C 90.80 77.39 105.44 77.96 120.03 77.73 C 122.74 77.49 125.91 78.15 127.19 80.85 C 129.15 84.28 126.28 88.95 122.35 88.87 C 108.55 89.18 94.73 88.89 80.93 89.02 C 78.31 88.96 75.02 89.13 73.34 86.68 C 70.92 83.80 72.60 78.88 76.24 78.01 Z" />
<path fill="#000000" d=" M 59.17 105.92 C 60.72 105.42 62.38 105.52 63.99 105.48 C 88.99 105.58 113.99 105.39 138.99 105.57 C 142.97 105.43 145.79 110.22 143.83 113.64 C 142.78 115.90 140.24 116.76 137.91 116.74 C 112.92 116.78 87.93 116.73 62.94 116.76 C 60.64 116.77 57.94 116.45 56.60 114.33 C 54.39 111.57 55.81 106.97 59.17 105.92 Z" />
<path fill="#000000" d=" M 77.34 133.35 C 91.90 133.11 106.48 133.32 121.05 133.25 C 123.99 133.02 127.34 134.81 127.69 137.97 C 128.50 141.41 125.21 144.63 121.85 144.47 C 107.27 144.54 92.69 144.50 78.12 144.49 C 75.09 144.61 72.11 142.02 72.21 138.91 C 72.06 136.05 74.56 133.58 77.34 133.35 Z" />
<path fill="#000000" d=" M 77.27 172.37 C 82.83 165.93 93.09 164.97 100.00 169.78 C 106.29 165.46 115.35 165.70 121.12 170.81 C 128.22 176.50 129.33 188.26 122.83 194.82 C 117.70 199.77 111.96 204.07 106.53 208.70 C 102.89 211.83 97.10 211.83 93.46 208.69 C 88.19 204.25 82.72 200.02 77.66 195.33 C 71.29 189.45 71.35 178.55 77.27 172.37 Z" />
<path fill="#ffffff" d=" M 85.03 187.08 C 81.79 183.16 86.04 176.90 90.82 177.84 C 94.78 178.17 95.81 183.64 99.99 183.42 C 104.18 183.65 105.22 178.17 109.19 177.84 C 113.99 176.90 118.24 183.21 114.94 187.12 C 110.13 191.50 104.95 195.47 100.00 199.71 C 95.04 195.46 89.84 191.48 85.03 187.08 Z" />
<path fill="#ffffff" d=" M 0.00 250.31 C 0.22 255.34 2.58 260.30 6.68 263.29 C 11.39 267.12 17.79 266.67 23.47 267.00 L 0.00 267.00 L 0.00 250.31 Z" />
</svg>
